M48
;Layer_Color=9474304
;FILE_FORMAT=4:4
METRIC,LZ
;TYPE=PLATED
T1F00S00C0.2000
T2F00S00C0.8000
T3F00S00C1.0000
T4F00S00C1.0200
T5F00S00C1.4000
T6F00S00C1.6000
T7F00S00C1.7000
T8F00S00C1.9800
T9F00S00C3.2000
;TYPE=NON_PLATED
T10F00S00C3.2500
%
T01
X00278Y00121
X00339Y0011275
X00393Y001119
X00436Y00102
X00458Y00109
X00463Y0006
X00435
X00407
X00376
X00345
X00342Y00181
X00353231Y00242049
X00363Y00265
X00372
X0036777Y00283
X00394Y00287
X00391Y00318
X0037277Y00324
X00358
Y0031223
X0034Y003175
X00333728Y00315793
X00334Y00309
X00325Y00336
X00319Y00339
X0032Y00349
X0031473Y00354
X00331Y00384
X003Y00407
Y00429
X00388Y00404
X00394Y00393
X00394035Y00348586
X00388Y00351
X00437Y00283
X0045Y00269
X00456Y00189
X0041Y00186
X00282Y00204
X00287Y00214
X00238Y00195
X00221
X00215Y00284
X00244
X00259Y00297
X0026Y00269
X00261Y00343
X0020578Y00396
X0044873Y00433
X00472
X00502Y00393
X00546Y00123
Y00089
X00493Y00081
X00177Y00166
X00166
X00157Y00169
X00148286Y001685
X00168Y00473
X00148Y0055
X00406Y00534
X00434Y00495
X00438Y00482
X00466Y00492
X00478
X00437Y00436
X0063Y00555
Y00587
T02
X00128Y004269
Y004498
X000798Y004598
Y004802
Y005006
Y00521
X00062Y005312
Y005108
Y004904
Y0047
X00128Y005412
Y005641
T03
X000966Y-0007
X00122
X001474
X003796Y-00066
X004073
X00435
X004627
X0047655Y-000376
X0044885
X0042115
X0039345
X0036575
T04
X004786Y002216
X00504
Y00247
Y002724
X004786
Y00247
X003454Y004346
Y0046
Y004854
X0032
Y0046
Y004346
X003076Y00546
Y005714
X00333
X003584
Y00546
X00333
T05
X00049Y00135
Y001858
Y002366
Y002874
T06
X005685Y000696
Y001204
X0057Y00215
Y002658
X00572Y00355
Y004058
Y00495
Y005458
T07
X000709Y0041425
Y0057675
T08
X0016Y000469
Y001231
Y002819
Y003581
T09
X0029615Y-000518
X0054615
T10
X000366Y00432
Y00559
M30
