G04*
G04 #@! TF.GenerationSoftware,Altium Limited,Altium Designer,23.2.1 (34)*
G04*
G04 Layer_Physical_Order=2*
G04 Layer_Color=16711680*
%FSLAX44Y44*%
%MOMM*%
G71*
G04*
G04 #@! TF.SameCoordinates,02241748-B98C-4FBF-A84C-9F2BC43F6668*
G04*
G04*
G04 #@! TF.FilePolarity,Positive*
G04*
G01*
G75*
%ADD10C,0.2500*%
%ADD11C,0.1000*%
%ADD12C,0.2000*%
%ADD57C,1.6000*%
%ADD66R,2.4500X2.4500*%
%ADD67C,2.4500*%
%ADD68C,3.0300*%
%ADD74C,0.5000*%
%ADD75C,0.2540*%
%ADD76C,1.0000*%
%ADD78C,1.5000*%
%ADD79R,1.5000X1.5000*%
%ADD80C,4.8000*%
%ADD81R,1.3000X1.3000*%
%ADD82C,1.3000*%
%ADD83C,3.2500*%
%ADD84C,2.5000*%
%ADD85R,1.5500X1.5500*%
%ADD86C,1.5500*%
%ADD87R,1.9000X1.9000*%
%ADD88C,1.9000*%
%ADD89R,1.6000X1.6000*%
%ADD90R,1.5500X1.5500*%
%ADD91C,0.5000*%
G36*
X695900Y-96900D02*
X3100D01*
Y596900D01*
X695900D01*
Y-96900D01*
D02*
G37*
%LPC*%
G36*
X129270Y573119D02*
Y565370D01*
X137019D01*
X136424Y567589D01*
X135234Y569651D01*
X133551Y571334D01*
X131489Y572524D01*
X129270Y573119D01*
D02*
G37*
G36*
X126730Y573119D02*
X124511Y572524D01*
X122449Y571334D01*
X120766Y569651D01*
X119576Y567589D01*
X118981Y565370D01*
X126730D01*
Y573119D01*
D02*
G37*
G36*
X341760Y591925D02*
X300040D01*
X298553Y591629D01*
X297293Y590787D01*
X280213Y573707D01*
X279371Y572447D01*
X279075Y570960D01*
Y247609D01*
X278983Y247517D01*
X278141Y246257D01*
X277845Y244770D01*
Y211817D01*
X278115Y210460D01*
Y207243D01*
X277727Y206855D01*
X276960Y205002D01*
Y202997D01*
X277727Y201145D01*
X279145Y199727D01*
X280998Y198960D01*
X283002D01*
X284855Y199727D01*
X286273Y201145D01*
X287040Y202997D01*
Y205002D01*
X286273Y206855D01*
X285885Y207243D01*
Y208885D01*
X285998Y208960D01*
X288002D01*
X289855Y209727D01*
X291273Y211145D01*
X292040Y212997D01*
Y215002D01*
X291273Y216855D01*
X290885Y217243D01*
Y408881D01*
X291464Y409220D01*
X292155Y409352D01*
X294960Y406546D01*
Y405998D01*
X295727Y404145D01*
X297145Y402727D01*
X298997Y401960D01*
X301003D01*
X301845Y402309D01*
X303115Y401460D01*
Y361730D01*
X303411Y360243D01*
X304253Y358983D01*
X309690Y353546D01*
Y352998D01*
X310457Y351145D01*
X311875Y349727D01*
X313727Y348960D01*
X314960D01*
Y347998D01*
X315727Y346145D01*
X316909Y344964D01*
X316878Y343929D01*
X316742Y343520D01*
X316145Y343273D01*
X314727Y341855D01*
X313960Y340003D01*
Y337998D01*
X314727Y336145D01*
X315136Y335737D01*
Y238125D01*
X315430Y236647D01*
X316268Y235393D01*
X425136Y126525D01*
Y97000D01*
X425430Y95521D01*
X426268Y94268D01*
X432268Y88268D01*
X433521Y87430D01*
X435000Y87136D01*
X481399D01*
X487960Y80575D01*
Y79998D01*
X488727Y78145D01*
X490145Y76727D01*
X491997Y75960D01*
X494002D01*
X495855Y76727D01*
X497273Y78145D01*
X498040Y79998D01*
Y82002D01*
X497273Y83855D01*
X495855Y85273D01*
X494002Y86040D01*
X493425D01*
X485732Y93732D01*
X484479Y94570D01*
X483000Y94864D01*
X436609D01*
X435826Y95813D01*
X436301Y96960D01*
X437002D01*
X438855Y97727D01*
X439263Y98136D01*
X462000D01*
X463479Y98430D01*
X464732Y99268D01*
X468732Y103267D01*
X468732Y103268D01*
X469570Y104521D01*
X469864Y106000D01*
Y112000D01*
X469864Y112000D01*
X469570Y113479D01*
X468732Y114732D01*
X468732Y114733D01*
X375864Y207601D01*
Y261737D01*
X376273Y262145D01*
X377040Y263997D01*
Y266003D01*
X378181Y266567D01*
X378757Y266681D01*
X380017Y267523D01*
X394454Y281960D01*
X395003D01*
X396855Y282727D01*
X398273Y284145D01*
X399040Y285998D01*
Y288002D01*
X398273Y289855D01*
X396855Y291273D01*
X395003Y292040D01*
X392998D01*
X391145Y291273D01*
X389727Y289855D01*
X388960Y288002D01*
Y287454D01*
X375661Y274155D01*
X360270D01*
X358783Y273859D01*
X357523Y273017D01*
X350484Y265978D01*
X349642Y264718D01*
X349347Y263231D01*
Y245292D01*
X348959Y244904D01*
X348191Y243051D01*
Y241046D01*
X348959Y239194D01*
X350376Y237776D01*
X352229Y237009D01*
X354234D01*
X356086Y237776D01*
X357504Y239194D01*
X358271Y241046D01*
Y243051D01*
X357504Y244904D01*
X357116Y245292D01*
Y261622D01*
X361879Y266385D01*
X366704D01*
X366960Y266003D01*
Y263997D01*
X367727Y262145D01*
X368136Y261737D01*
Y206125D01*
X367845Y205886D01*
X366934Y205531D01*
X329114Y243351D01*
Y300051D01*
X330288Y300537D01*
X350377Y280448D01*
X351548Y279665D01*
X352929Y279391D01*
X364252D01*
X364915Y278727D01*
X366768Y277960D01*
X368773D01*
X370625Y278727D01*
X372043Y280145D01*
X372810Y281998D01*
Y284002D01*
X372043Y285855D01*
X370625Y287273D01*
X368773Y288040D01*
X366768D01*
X364915Y287273D01*
X364252Y286609D01*
X354424D01*
X336764Y304270D01*
X336855Y304727D01*
X337518Y305391D01*
X338571D01*
X339952Y305665D01*
X341123Y306448D01*
X353217Y318542D01*
X354391Y318056D01*
Y315748D01*
X353727Y315085D01*
X352960Y313232D01*
Y311227D01*
X353727Y309375D01*
X355145Y307957D01*
X356997Y307190D01*
X359002D01*
X360855Y307957D01*
X362273Y309375D01*
X363040Y311227D01*
Y313232D01*
X362273Y315085D01*
X361609Y315748D01*
Y320391D01*
X369252D01*
X369915Y319727D01*
X371768Y318960D01*
X373773D01*
X375625Y319727D01*
X377043Y321145D01*
X377810Y322998D01*
Y325003D01*
X377043Y326855D01*
X375625Y328273D01*
X373773Y329040D01*
X371768D01*
X369915Y328273D01*
X369252Y327609D01*
X361518D01*
X360855Y328273D01*
X359002Y329040D01*
X356997D01*
X355145Y328273D01*
X354482Y327609D01*
X353571D01*
X352190Y327335D01*
X351019Y326552D01*
X340038Y315572D01*
X338768Y316098D01*
Y316795D01*
X338001Y318647D01*
X336583Y320065D01*
X334731Y320833D01*
X332726D01*
X330873Y320065D01*
X330384Y319576D01*
X329114Y320102D01*
Y332987D01*
X329273Y333145D01*
X330040Y334997D01*
Y337002D01*
X329273Y338855D01*
X327855Y340273D01*
X326003Y341040D01*
X323997D01*
X323667Y340903D01*
X323273Y341855D01*
X322091Y343036D01*
X322122Y344071D01*
X322258Y344480D01*
X322855Y344727D01*
X324273Y346145D01*
X325040Y347998D01*
Y350003D01*
X324273Y351855D01*
X323885Y352243D01*
Y424988D01*
X323972Y425011D01*
X326318Y426366D01*
X328234Y428282D01*
X329589Y430628D01*
X330290Y433245D01*
Y435955D01*
X329589Y438572D01*
X328234Y440918D01*
X326318Y442834D01*
X323972Y444189D01*
X321355Y444890D01*
X318645D01*
X316028Y444189D01*
X313682Y442834D01*
X312155Y441307D01*
X310885Y441833D01*
Y445391D01*
X315950Y450456D01*
X316028Y450411D01*
X318645Y449710D01*
X321355D01*
X323972Y450411D01*
X326318Y451766D01*
X328234Y453682D01*
X329589Y456028D01*
X330290Y458645D01*
Y461355D01*
X329589Y463972D01*
X328234Y466318D01*
X326318Y468234D01*
X323972Y469589D01*
X321355Y470290D01*
X318645D01*
X316028Y469589D01*
X313682Y468234D01*
X311766Y466318D01*
X310411Y463972D01*
X309710Y461355D01*
Y458645D01*
X310411Y456028D01*
X310456Y455950D01*
X305155Y450648D01*
X303885Y451174D01*
Y534701D01*
X305179Y535996D01*
X306245Y535710D01*
X308955D01*
X311572Y536411D01*
X313918Y537766D01*
X315834Y539682D01*
X317189Y542028D01*
X317890Y544645D01*
Y547355D01*
X317189Y549972D01*
X315834Y552318D01*
X313918Y554234D01*
X311572Y555589D01*
X308955Y556290D01*
X306245D01*
X303628Y555589D01*
X301282Y554234D01*
X299885Y552837D01*
X298615Y553363D01*
Y556921D01*
X303550Y561856D01*
X303628Y561811D01*
X306245Y561110D01*
X308955D01*
X311572Y561811D01*
X313918Y563166D01*
X315834Y565082D01*
X317189Y567428D01*
X317890Y570045D01*
Y572755D01*
X317189Y575372D01*
X315834Y577718D01*
X314707Y578845D01*
X315233Y580115D01*
X318791D01*
X323456Y575450D01*
X323411Y575372D01*
X322710Y572755D01*
Y570045D01*
X323411Y567428D01*
X324766Y565082D01*
X326682Y563166D01*
X329028Y561811D01*
X331645Y561110D01*
X334355D01*
X336972Y561811D01*
X339318Y563166D01*
X341234Y565082D01*
X342589Y567428D01*
X343290Y570045D01*
Y572755D01*
X342589Y575372D01*
X341234Y577718D01*
X339318Y579634D01*
X336972Y580989D01*
X334355Y581690D01*
X331645D01*
X329028Y580989D01*
X328950Y580944D01*
X326912Y582982D01*
X327398Y584155D01*
X340151D01*
X348110Y576196D01*
Y561110D01*
X368690D01*
Y581690D01*
X353604D01*
X344507Y590787D01*
X343247Y591629D01*
X341760Y591925D01*
D02*
G37*
G36*
X670000Y594132D02*
X666268Y593764D01*
X662679Y592676D01*
X659371Y590908D01*
X656472Y588528D01*
X654092Y585629D01*
X652324Y582322D01*
X651236Y578732D01*
X650868Y575000D01*
X651236Y571268D01*
X652324Y567678D01*
X654092Y564371D01*
X656472Y561471D01*
X659371Y559092D01*
X662679Y557324D01*
X666268Y556236D01*
X670000Y555868D01*
X673733Y556236D01*
X677322Y557324D01*
X680629Y559092D01*
X683529Y561471D01*
X685908Y564371D01*
X687676Y567678D01*
X688764Y571268D01*
X689132Y575000D01*
X688764Y578732D01*
X687676Y582322D01*
X685908Y585629D01*
X683529Y588528D01*
X680629Y590908D01*
X677322Y592676D01*
X673733Y593764D01*
X670000Y594132D01*
D02*
G37*
G36*
X137019Y562830D02*
X129270D01*
Y555081D01*
X131489Y555676D01*
X133551Y556866D01*
X135234Y558549D01*
X136424Y560611D01*
X137019Y562830D01*
D02*
G37*
G36*
X126730D02*
X118981D01*
X119576Y560611D01*
X120766Y558549D01*
X122449Y556866D01*
X124511Y555676D01*
X126730Y555081D01*
Y562830D01*
D02*
G37*
G36*
X72381Y591790D02*
X69419D01*
X66513Y591212D01*
X63776Y590078D01*
X61313Y588432D01*
X59218Y586337D01*
X57572Y583874D01*
X56438Y581137D01*
X55860Y578231D01*
Y575269D01*
X56438Y572363D01*
X57572Y569626D01*
X59218Y567163D01*
X61313Y565068D01*
X63776Y563422D01*
X64544Y563103D01*
Y561811D01*
X55731Y552998D01*
X54721Y553784D01*
X55390Y557149D01*
Y560851D01*
X54668Y564481D01*
X53252Y567900D01*
X51195Y570978D01*
X48578Y573595D01*
X45500Y575652D01*
X42081Y577068D01*
X38451Y577790D01*
X34749D01*
X31119Y577068D01*
X27700Y575652D01*
X24622Y573595D01*
X22005Y570978D01*
X19949Y567900D01*
X18532Y564481D01*
X17810Y560851D01*
Y557149D01*
X18532Y553519D01*
X19949Y550100D01*
X22005Y547022D01*
X24622Y544405D01*
X27700Y542349D01*
X31119Y540932D01*
X34749Y540210D01*
X38451D01*
X41816Y540879D01*
X42602Y539869D01*
X41366Y538634D01*
X40252Y536967D01*
X39861Y535000D01*
Y461000D01*
X40252Y459034D01*
X41366Y457366D01*
X65761Y432971D01*
Y428401D01*
X63776Y427578D01*
X61313Y425932D01*
X59218Y423837D01*
X57572Y421374D01*
X56438Y418637D01*
X55860Y415731D01*
Y412769D01*
X56438Y409863D01*
X57572Y407126D01*
X59218Y404663D01*
X61313Y402568D01*
X63776Y400922D01*
X66513Y399788D01*
X69419Y399210D01*
X72381D01*
X75287Y399788D01*
X78024Y400922D01*
X80487Y402568D01*
X82582Y404663D01*
X84228Y407126D01*
X85362Y409863D01*
X85940Y412769D01*
Y415731D01*
X85362Y418637D01*
X84228Y421374D01*
X82582Y423837D01*
X80487Y425932D01*
X78024Y427578D01*
X76039Y428401D01*
Y435100D01*
X75648Y437066D01*
X74534Y438734D01*
X50139Y463129D01*
Y532872D01*
X51787Y534519D01*
X52960Y534033D01*
Y522160D01*
X70514D01*
X70514Y522160D01*
X70514D01*
X70760Y520967D01*
Y519810D01*
X71376Y517511D01*
X72566Y515449D01*
X74249Y513766D01*
X76311Y512576D01*
X78610Y511960D01*
X80990D01*
X83289Y512576D01*
X85351Y513766D01*
X87034Y515449D01*
X88224Y517511D01*
X88840Y519810D01*
Y522190D01*
X88224Y524489D01*
X87034Y526551D01*
X85351Y528234D01*
X83289Y529424D01*
X80990Y530040D01*
X78610D01*
X76311Y529424D01*
X74249Y528234D01*
X72566Y526551D01*
X72310Y526107D01*
X71040Y526447D01*
Y540240D01*
X59167D01*
X58681Y541413D01*
X73316Y556049D01*
X74430Y557716D01*
X74822Y559683D01*
Y562195D01*
X75287Y562288D01*
X78024Y563422D01*
X80487Y565068D01*
X82582Y567163D01*
X84228Y569626D01*
X85362Y572363D01*
X85940Y575269D01*
Y578231D01*
X85362Y581137D01*
X84228Y583874D01*
X82582Y586337D01*
X80487Y588432D01*
X78024Y590078D01*
X75287Y591212D01*
X72381Y591790D01*
D02*
G37*
G36*
X630000Y592139D02*
X629504Y592040D01*
X628997D01*
X628530Y591846D01*
X628033Y591748D01*
X627613Y591466D01*
X627145Y591273D01*
X626787Y590915D01*
X626366Y590634D01*
X626085Y590213D01*
X625727Y589855D01*
X625534Y589387D01*
X625252Y588966D01*
X625154Y588470D01*
X624960Y588003D01*
Y587496D01*
X624861Y587000D01*
Y555000D01*
X624960Y554504D01*
Y553997D01*
X625154Y553530D01*
X625252Y553033D01*
X625534Y552613D01*
X625727Y552145D01*
X626085Y551787D01*
X626366Y551366D01*
X626787Y551085D01*
X627145Y550727D01*
X627613Y550534D01*
X628033Y550252D01*
X628530Y550154D01*
X628997Y549960D01*
X629504D01*
X630000Y549861D01*
X630496Y549960D01*
X631003D01*
X631470Y550154D01*
X631967Y550252D01*
X632387Y550534D01*
X632855Y550727D01*
X633213Y551085D01*
X633634Y551366D01*
X633915Y551787D01*
X634273Y552145D01*
X634466Y552613D01*
X634748Y553033D01*
X634846Y553530D01*
X635040Y553997D01*
Y554504D01*
X635139Y555000D01*
Y587000D01*
X635040Y587496D01*
Y588003D01*
X634846Y588470D01*
X634748Y588966D01*
X634466Y589387D01*
X634273Y589855D01*
X633915Y590213D01*
X633634Y590634D01*
X633213Y590915D01*
X632855Y591273D01*
X632387Y591466D01*
X631967Y591748D01*
X631470Y591846D01*
X631003Y592040D01*
X630496D01*
X630000Y592139D01*
D02*
G37*
G36*
X359755Y556290D02*
X359670D01*
Y547270D01*
X368690D01*
Y547355D01*
X367989Y549972D01*
X366634Y552318D01*
X364718Y554234D01*
X362372Y555589D01*
X359755Y556290D01*
D02*
G37*
G36*
X357130D02*
X357045D01*
X354428Y555589D01*
X352082Y554234D01*
X350166Y552318D01*
X348811Y549972D01*
X348110Y547355D01*
Y547270D01*
X357130D01*
Y556290D01*
D02*
G37*
G36*
X368690Y544730D02*
X359670D01*
Y535710D01*
X359755D01*
X362372Y536411D01*
X364718Y537766D01*
X366634Y539682D01*
X367989Y542028D01*
X368690Y544645D01*
Y544730D01*
D02*
G37*
G36*
X357130D02*
X348110D01*
Y544645D01*
X348811Y542028D01*
X350166Y539682D01*
X352082Y537766D01*
X354428Y536411D01*
X357045Y535710D01*
X357130D01*
Y544730D01*
D02*
G37*
G36*
X334355Y556290D02*
X331645D01*
X329028Y555589D01*
X326682Y554234D01*
X324766Y552318D01*
X323411Y549972D01*
X322710Y547355D01*
Y544645D01*
X323411Y542028D01*
X324766Y539682D01*
X326682Y537766D01*
X329028Y536411D01*
X331645Y535710D01*
X334355D01*
X336972Y536411D01*
X339318Y537766D01*
X341234Y539682D01*
X342589Y542028D01*
X343290Y544645D01*
Y547355D01*
X342589Y549972D01*
X341234Y552318D01*
X339318Y554234D01*
X336972Y555589D01*
X334355Y556290D01*
D02*
G37*
G36*
X129190Y550240D02*
X126810D01*
X124511Y549624D01*
X122449Y548434D01*
X120766Y546751D01*
X119576Y544689D01*
X118960Y542390D01*
Y540010D01*
X119576Y537711D01*
X120766Y535649D01*
X122449Y533966D01*
X124511Y532776D01*
X126810Y532160D01*
X129190D01*
X131489Y532776D01*
X133551Y533966D01*
X135234Y535649D01*
X136424Y537711D01*
X137040Y540010D01*
Y542390D01*
X136424Y544689D01*
X135234Y546751D01*
X133551Y548434D01*
X131489Y549624D01*
X129190Y550240D01*
D02*
G37*
G36*
X586790Y560590D02*
X557210D01*
Y531010D01*
X586790D01*
Y560590D01*
D02*
G37*
G36*
X63190Y519840D02*
X60810D01*
X58511Y519224D01*
X56449Y518034D01*
X54766Y516351D01*
X53576Y514289D01*
X52960Y511990D01*
Y509610D01*
X53576Y507311D01*
X54766Y505249D01*
X56449Y503566D01*
X58511Y502376D01*
X60810Y501760D01*
X63190D01*
X65489Y502376D01*
X67551Y503566D01*
X69234Y505249D01*
X70424Y507311D01*
X71040Y509610D01*
Y511990D01*
X70424Y514289D01*
X69234Y516351D01*
X67551Y518034D01*
X65489Y519224D01*
X63190Y519840D01*
D02*
G37*
G36*
X573457Y509790D02*
X573270D01*
Y496270D01*
X586790D01*
Y496457D01*
X586222Y499314D01*
X585107Y502006D01*
X583488Y504428D01*
X581428Y506488D01*
X579006Y508107D01*
X576314Y509222D01*
X573457Y509790D01*
D02*
G37*
G36*
X570730D02*
X570543D01*
X567686Y509222D01*
X564994Y508107D01*
X562572Y506488D01*
X560512Y504428D01*
X558893Y502006D01*
X557778Y499314D01*
X557210Y496457D01*
Y496270D01*
X570730D01*
Y509790D01*
D02*
G37*
G36*
X479002Y497040D02*
X476997D01*
X475145Y496273D01*
X474757Y495885D01*
X469243D01*
X468855Y496273D01*
X467002Y497040D01*
X464997D01*
X463145Y496273D01*
X462757Y495885D01*
X448000D01*
X446513Y495589D01*
X445253Y494747D01*
X437546Y487040D01*
X436997D01*
X435145Y486273D01*
X433727Y484855D01*
X432960Y483003D01*
Y480998D01*
X433727Y479145D01*
X435145Y477727D01*
X436997Y476960D01*
X439002D01*
X440855Y477727D01*
X442273Y479145D01*
X443040Y480998D01*
Y481546D01*
X449609Y488115D01*
X462757D01*
X463145Y487727D01*
X464997Y486960D01*
X467002D01*
X468855Y487727D01*
X469243Y488115D01*
X474757D01*
X475145Y487727D01*
X476997Y486960D01*
X479002D01*
X480855Y487727D01*
X482273Y489145D01*
X483040Y490998D01*
Y493003D01*
X482273Y494855D01*
X480855Y496273D01*
X479002Y497040D01*
D02*
G37*
G36*
X80990Y509640D02*
X78610D01*
X76311Y509024D01*
X74249Y507834D01*
X72566Y506151D01*
X71376Y504089D01*
X70760Y501790D01*
Y499410D01*
X71376Y497111D01*
X72566Y495049D01*
X74249Y493366D01*
X76311Y492176D01*
X78610Y491560D01*
X80990D01*
X83289Y492176D01*
X85351Y493366D01*
X87034Y495049D01*
X88224Y497111D01*
X88840Y499410D01*
Y501790D01*
X88224Y504089D01*
X87034Y506151D01*
X85351Y507834D01*
X83289Y509024D01*
X80990Y509640D01*
D02*
G37*
G36*
X346755Y495690D02*
X346670D01*
Y486670D01*
X355690D01*
Y486755D01*
X354989Y489372D01*
X353634Y491718D01*
X351718Y493634D01*
X349372Y494989D01*
X346755Y495690D01*
D02*
G37*
G36*
X344130D02*
X344045D01*
X341428Y494989D01*
X339082Y493634D01*
X337166Y491718D01*
X335811Y489372D01*
X335110Y486755D01*
Y486670D01*
X344130D01*
Y495690D01*
D02*
G37*
G36*
X63190Y499440D02*
X60810D01*
X58511Y498824D01*
X56449Y497634D01*
X54766Y495951D01*
X53576Y493889D01*
X52960Y491590D01*
Y489210D01*
X53576Y486911D01*
X54766Y484849D01*
X56449Y483166D01*
X58511Y481976D01*
X60810Y481360D01*
X63190D01*
X65489Y481976D01*
X67551Y483166D01*
X69234Y484849D01*
X70424Y486911D01*
X71040Y489210D01*
Y491590D01*
X70424Y493889D01*
X69234Y495951D01*
X67551Y497634D01*
X65489Y498824D01*
X63190Y499440D01*
D02*
G37*
G36*
X586790Y493730D02*
X573270D01*
Y480210D01*
X573457D01*
X576314Y480778D01*
X579006Y481893D01*
X581428Y483512D01*
X583488Y485572D01*
X585107Y487994D01*
X586222Y490686D01*
X586790Y493543D01*
Y493730D01*
D02*
G37*
G36*
X570730D02*
X557210D01*
Y493543D01*
X557778Y490686D01*
X558893Y487994D01*
X560512Y485572D01*
X562572Y483512D01*
X564994Y481893D01*
X567686Y480778D01*
X570543Y480210D01*
X570730D01*
Y493730D01*
D02*
G37*
G36*
X355690Y484130D02*
X346670D01*
Y475110D01*
X346755D01*
X349372Y475811D01*
X351718Y477166D01*
X353634Y479082D01*
X354989Y481428D01*
X355690Y484045D01*
Y484130D01*
D02*
G37*
G36*
X344130D02*
X335110D01*
Y484045D01*
X335811Y481428D01*
X337166Y479082D01*
X339082Y477166D01*
X341428Y475811D01*
X344045Y475110D01*
X344130D01*
Y484130D01*
D02*
G37*
G36*
X321355Y495690D02*
X318645D01*
X316028Y494989D01*
X313682Y493634D01*
X311766Y491718D01*
X310411Y489372D01*
X309710Y486755D01*
Y484045D01*
X310411Y481428D01*
X311766Y479082D01*
X313682Y477166D01*
X316028Y475811D01*
X318645Y475110D01*
X321355D01*
X323972Y475811D01*
X326318Y477166D01*
X328234Y479082D01*
X329589Y481428D01*
X330290Y484045D01*
Y486755D01*
X329589Y489372D01*
X328234Y491718D01*
X326318Y493634D01*
X323972Y494989D01*
X321355Y495690D01*
D02*
G37*
G36*
X63270Y479019D02*
Y471270D01*
X71019D01*
X70424Y473489D01*
X69234Y475551D01*
X67551Y477234D01*
X65489Y478424D01*
X63270Y479019D01*
D02*
G37*
G36*
X60730Y479019D02*
X58511Y478424D01*
X56449Y477234D01*
X54766Y475551D01*
X53576Y473489D01*
X52981Y471270D01*
X60730D01*
Y479019D01*
D02*
G37*
G36*
X80990Y489240D02*
X78610D01*
X76311Y488624D01*
X74249Y487434D01*
X72566Y485751D01*
X71376Y483689D01*
X70760Y481390D01*
Y479010D01*
X71376Y476711D01*
X72566Y474649D01*
X74249Y472966D01*
X76311Y471776D01*
X78610Y471160D01*
X80990D01*
X83289Y471776D01*
X85351Y472966D01*
X87034Y474649D01*
X88224Y476711D01*
X88840Y479010D01*
Y481390D01*
X88224Y483689D01*
X87034Y485751D01*
X85351Y487434D01*
X83289Y488624D01*
X80990Y489240D01*
D02*
G37*
G36*
X81070Y468819D02*
Y461070D01*
X88819D01*
X88224Y463289D01*
X87034Y465351D01*
X85351Y467034D01*
X83289Y468224D01*
X81070Y468819D01*
D02*
G37*
G36*
X78530D02*
X76311Y468224D01*
X74249Y467034D01*
X72566Y465351D01*
X71376Y463289D01*
X70781Y461070D01*
X78530D01*
Y468819D01*
D02*
G37*
G36*
X60730Y468730D02*
X52981D01*
X53576Y466511D01*
X54766Y464449D01*
X56449Y462766D01*
X58511Y461576D01*
X60730Y460981D01*
Y468730D01*
D02*
G37*
G36*
X71019D02*
X63270D01*
Y460981D01*
X65489Y461576D01*
X67551Y462766D01*
X69234Y464449D01*
X70424Y466511D01*
X71019Y468730D01*
D02*
G37*
G36*
X88819Y458530D02*
X81070D01*
Y450781D01*
X83289Y451376D01*
X85351Y452566D01*
X87034Y454249D01*
X88224Y456311D01*
X88819Y458530D01*
D02*
G37*
G36*
X78530D02*
X70781D01*
X71376Y456311D01*
X72566Y454249D01*
X74249Y452566D01*
X76311Y451376D01*
X78530Y450781D01*
Y458530D01*
D02*
G37*
G36*
X346755Y470290D02*
X344045D01*
X341428Y469589D01*
X339082Y468234D01*
X337166Y466318D01*
X335811Y463972D01*
X335110Y461355D01*
Y458645D01*
X335811Y456028D01*
X337166Y453682D01*
X339082Y451766D01*
X341428Y450411D01*
X344045Y449710D01*
X346755D01*
X349372Y450411D01*
X351718Y451766D01*
X353634Y453682D01*
X354989Y456028D01*
X355690Y458645D01*
Y461355D01*
X354989Y463972D01*
X353634Y466318D01*
X351718Y468234D01*
X349372Y469589D01*
X346755Y470290D01*
D02*
G37*
G36*
X129190Y458840D02*
X126810D01*
X124511Y458224D01*
X122449Y457034D01*
X120766Y455351D01*
X119576Y453289D01*
X118960Y450990D01*
Y448610D01*
X119576Y446311D01*
X120766Y444249D01*
X122449Y442566D01*
X124511Y441376D01*
X126810Y440760D01*
X129190D01*
X131489Y441376D01*
X133551Y442566D01*
X135234Y444249D01*
X136424Y446311D01*
X137040Y448610D01*
Y450990D01*
X136424Y453289D01*
X135234Y455351D01*
X133551Y457034D01*
X131489Y458224D01*
X129190Y458840D01*
D02*
G37*
G36*
X473003Y438040D02*
X470998D01*
X469145Y437273D01*
X468757Y436885D01*
X451973D01*
X451585Y437273D01*
X449733Y438040D01*
X447728D01*
X445875Y437273D01*
X444457Y435855D01*
X443690Y434002D01*
Y431997D01*
X444457Y430145D01*
X445875Y428727D01*
X447728Y427960D01*
X449733D01*
X451585Y428727D01*
X451973Y429115D01*
X468757D01*
X469145Y428727D01*
X470998Y427960D01*
X473003D01*
X474855Y428727D01*
X476273Y430145D01*
X477040Y431997D01*
Y434002D01*
X476273Y435855D01*
X474855Y437273D01*
X473003Y438040D01*
D02*
G37*
G36*
X149003Y555040D02*
X146997D01*
X145145Y554273D01*
X143727Y552855D01*
X142960Y551003D01*
Y548997D01*
X143727Y547145D01*
X144115Y546757D01*
Y448509D01*
X131048Y435442D01*
X129190Y435940D01*
X126810D01*
X124511Y435324D01*
X122449Y434134D01*
X120766Y432451D01*
X119576Y430389D01*
X118960Y428090D01*
Y425710D01*
X119576Y423411D01*
X120766Y421349D01*
X122449Y419666D01*
X124511Y418476D01*
X126810Y417860D01*
X129190D01*
X131489Y418476D01*
X133551Y419666D01*
X135234Y421349D01*
X136424Y423411D01*
X137040Y425710D01*
Y428090D01*
X136542Y429948D01*
X150747Y444153D01*
X151589Y445413D01*
X151885Y446900D01*
Y546757D01*
X152273Y547145D01*
X153040Y548997D01*
Y551003D01*
X152273Y552855D01*
X150855Y554273D01*
X149003Y555040D01*
D02*
G37*
G36*
X407002Y539040D02*
X404997D01*
X403145Y538273D01*
X401727Y536855D01*
X400960Y535003D01*
Y532998D01*
X401727Y531145D01*
X402115Y530757D01*
Y467000D01*
X402411Y465513D01*
X403253Y464253D01*
X431960Y435546D01*
Y434997D01*
X432727Y433145D01*
X434145Y431727D01*
X435998Y430960D01*
X438003D01*
X439855Y431727D01*
X441273Y433145D01*
X442040Y434997D01*
Y437002D01*
X441273Y438855D01*
X439855Y440273D01*
X438003Y441040D01*
X437454D01*
X409885Y468609D01*
Y530757D01*
X410273Y531145D01*
X411040Y532998D01*
Y535003D01*
X410273Y536855D01*
X408855Y538273D01*
X407002Y539040D01*
D02*
G37*
G36*
X355690Y444890D02*
X335110D01*
Y424310D01*
X355690D01*
Y444890D01*
D02*
G37*
G36*
X38451Y450790D02*
X34749D01*
X31119Y450068D01*
X27700Y448652D01*
X24622Y446595D01*
X22005Y443978D01*
X19949Y440900D01*
X18532Y437481D01*
X17810Y433851D01*
Y430149D01*
X18532Y426519D01*
X19949Y423100D01*
X22005Y420022D01*
X24622Y417405D01*
X27700Y415349D01*
X31119Y413932D01*
X34749Y413210D01*
X38451D01*
X42081Y413932D01*
X45500Y415349D01*
X48578Y417405D01*
X51195Y420022D01*
X53252Y423100D01*
X54668Y426519D01*
X55390Y430149D01*
Y433851D01*
X54668Y437481D01*
X53252Y440900D01*
X51195Y443978D01*
X48578Y446595D01*
X45500Y448652D01*
X42081Y450068D01*
X38451Y450790D01*
D02*
G37*
G36*
X586790Y420590D02*
X557210D01*
Y391010D01*
X586790D01*
Y420590D01*
D02*
G37*
G36*
X573457Y369790D02*
X573270D01*
Y356270D01*
X586790D01*
Y356457D01*
X586222Y359314D01*
X585107Y362006D01*
X583488Y364428D01*
X581428Y366488D01*
X579006Y368107D01*
X576314Y369222D01*
X573457Y369790D01*
D02*
G37*
G36*
X570730D02*
X570543D01*
X567686Y369222D01*
X564994Y368107D01*
X562572Y366488D01*
X560512Y364428D01*
X558893Y362006D01*
X557778Y359314D01*
X557210Y356457D01*
Y356270D01*
X570730D01*
Y369790D01*
D02*
G37*
G36*
X38303Y382243D02*
X34571Y381875D01*
X30982Y380787D01*
X27674Y379019D01*
X24775Y376639D01*
X22396Y373740D01*
X20628Y370432D01*
X19539Y366843D01*
X19171Y363111D01*
X19539Y359378D01*
X20628Y355789D01*
X22396Y352482D01*
X24775Y349582D01*
X27674Y347203D01*
X30982Y345435D01*
X34571Y344346D01*
X38303Y343979D01*
X42036Y344346D01*
X45625Y345435D01*
X48933Y347203D01*
X51832Y349582D01*
X54211Y352482D01*
X55979Y355789D01*
X57068Y359378D01*
X57436Y363111D01*
X57068Y366843D01*
X55979Y370432D01*
X54211Y373740D01*
X51832Y376639D01*
X48933Y379019D01*
X45625Y380787D01*
X42036Y381875D01*
X38303Y382243D01*
D02*
G37*
G36*
X389002Y409040D02*
X386997D01*
X385145Y408273D01*
X383727Y406855D01*
X382960Y405003D01*
Y402998D01*
X383727Y401145D01*
X384115Y400757D01*
Y354243D01*
X383727Y353855D01*
X382960Y352002D01*
Y349997D01*
X383727Y348145D01*
X385145Y346727D01*
X386997Y345960D01*
X389002D01*
X389570Y346195D01*
X389762Y345731D01*
X391180Y344313D01*
X393033Y343546D01*
X395038D01*
X396890Y344313D01*
X398308Y345731D01*
X399075Y347583D01*
Y349589D01*
X398308Y351441D01*
X397902Y351847D01*
Y389775D01*
X398273Y390145D01*
X399040Y391997D01*
Y394002D01*
X398273Y395855D01*
X396855Y397273D01*
X395003Y398040D01*
X392998D01*
X392941Y398017D01*
X391885Y398722D01*
Y400757D01*
X392273Y401145D01*
X393040Y402998D01*
Y405003D01*
X392273Y406855D01*
X390855Y408273D01*
X389002Y409040D01*
D02*
G37*
G36*
X161742Y375790D02*
X158258D01*
X154840Y375110D01*
X151621Y373777D01*
X148723Y371841D01*
X146259Y369377D01*
X144323Y366479D01*
X142990Y363260D01*
X142310Y359842D01*
Y356358D01*
X142990Y352940D01*
X144323Y349721D01*
X146259Y346823D01*
X148723Y344359D01*
X151621Y342423D01*
X154840Y341090D01*
X158258Y340410D01*
X161742D01*
X165160Y341090D01*
X168379Y342423D01*
X171277Y344359D01*
X173741Y346823D01*
X175677Y349721D01*
X177010Y352940D01*
X177690Y356358D01*
Y359842D01*
X177010Y363260D01*
X175677Y366479D01*
X173741Y369377D01*
X171277Y371841D01*
X168379Y373777D01*
X165160Y375110D01*
X161742Y375790D01*
D02*
G37*
G36*
X586790Y353730D02*
X573270D01*
Y340210D01*
X573457D01*
X576314Y340778D01*
X579006Y341893D01*
X581428Y343512D01*
X583488Y345572D01*
X585107Y347994D01*
X586222Y350686D01*
X586790Y353543D01*
Y353730D01*
D02*
G37*
G36*
X570730D02*
X557210D01*
Y353543D01*
X557778Y350686D01*
X558893Y347994D01*
X560512Y345572D01*
X562572Y343512D01*
X564994Y341893D01*
X567686Y340778D01*
X570543Y340210D01*
X570730D01*
Y353730D01*
D02*
G37*
G36*
X50585Y299440D02*
X50270D01*
Y288670D01*
X61040D01*
Y288985D01*
X60219Y292047D01*
X58634Y294793D01*
X56393Y297034D01*
X53647Y298619D01*
X50585Y299440D01*
D02*
G37*
G36*
X47730D02*
X47415D01*
X44353Y298619D01*
X41607Y297034D01*
X39366Y294793D01*
X37780Y292047D01*
X36960Y288985D01*
Y288670D01*
X47730D01*
Y299440D01*
D02*
G37*
G36*
X245002Y289040D02*
X242997D01*
X241145Y288273D01*
X240757Y287885D01*
X218243D01*
X217855Y288273D01*
X216003Y289040D01*
X213997D01*
X212145Y288273D01*
X210727Y286855D01*
X209960Y285002D01*
Y282997D01*
X210727Y281145D01*
X212145Y279727D01*
X213997Y278960D01*
X216003D01*
X217855Y279727D01*
X218243Y280115D01*
X240757D01*
X241145Y279727D01*
X242997Y278960D01*
X245002D01*
X246855Y279727D01*
X248273Y281145D01*
X249040Y282997D01*
Y285002D01*
X248273Y286855D01*
X246855Y288273D01*
X245002Y289040D01*
D02*
G37*
G36*
X61040Y286130D02*
X50270D01*
Y275360D01*
X50585D01*
X53647Y276180D01*
X56393Y277766D01*
X58634Y280007D01*
X60219Y282753D01*
X61040Y285815D01*
Y286130D01*
D02*
G37*
G36*
X47730D02*
X36960D01*
Y285815D01*
X37780Y282753D01*
X39366Y280007D01*
X41607Y277766D01*
X44353Y276180D01*
X47415Y275360D01*
X47730D01*
Y286130D01*
D02*
G37*
G36*
X161742Y299590D02*
X158258D01*
X154840Y298910D01*
X151621Y297577D01*
X148723Y295641D01*
X146259Y293177D01*
X144323Y290279D01*
X142990Y287060D01*
X142310Y283642D01*
Y280158D01*
X142990Y276740D01*
X144323Y273521D01*
X146259Y270623D01*
X148723Y268159D01*
X151621Y266223D01*
X154840Y264890D01*
X158258Y264210D01*
X161742D01*
X165160Y264890D01*
X168379Y266223D01*
X171277Y268159D01*
X173741Y270623D01*
X175677Y273521D01*
X177010Y276740D01*
X177690Y280158D01*
Y283642D01*
X177010Y287060D01*
X175677Y290279D01*
X173741Y293177D01*
X171277Y295641D01*
X168379Y297577D01*
X165160Y298910D01*
X161742Y299590D01*
D02*
G37*
G36*
X438003Y288040D02*
X435998D01*
X434145Y287273D01*
X432727Y285855D01*
X431960Y284002D01*
Y281998D01*
X432727Y280145D01*
X434145Y278727D01*
X435998Y277960D01*
X436046D01*
X444960Y269046D01*
Y267997D01*
X445727Y266145D01*
X447145Y264727D01*
X448997Y263960D01*
X451003D01*
X452855Y264727D01*
X454273Y266145D01*
X455040Y267997D01*
Y270002D01*
X454273Y271855D01*
X452855Y273273D01*
X451003Y274040D01*
X450954D01*
X442040Y282954D01*
Y284002D01*
X441273Y285855D01*
X439855Y287273D01*
X438003Y288040D01*
D02*
G37*
G36*
X505355Y282690D02*
X502645D01*
X500028Y281989D01*
X497682Y280634D01*
X495766Y278718D01*
X494411Y276372D01*
X493710Y273755D01*
Y271045D01*
X494411Y268428D01*
X495766Y266082D01*
X497682Y264166D01*
X500028Y262811D01*
X502645Y262110D01*
X505355D01*
X507972Y262811D01*
X510318Y264166D01*
X512234Y266082D01*
X513589Y268428D01*
X514290Y271045D01*
Y273755D01*
X513589Y276372D01*
X512234Y278718D01*
X510318Y280634D01*
X507972Y281989D01*
X505355Y282690D01*
D02*
G37*
G36*
X479955D02*
X477245D01*
X474628Y281989D01*
X472282Y280634D01*
X470366Y278718D01*
X469011Y276372D01*
X468310Y273755D01*
Y271045D01*
X469011Y268428D01*
X470366Y266082D01*
X472282Y264166D01*
X474628Y262811D01*
X477245Y262110D01*
X479955D01*
X482572Y262811D01*
X484918Y264166D01*
X486834Y266082D01*
X488189Y268428D01*
X488890Y271045D01*
Y273755D01*
X488189Y276372D01*
X486834Y278718D01*
X484918Y280634D01*
X482572Y281989D01*
X479955Y282690D01*
D02*
G37*
G36*
X584790Y280590D02*
X555210D01*
Y251010D01*
X584790D01*
Y280590D01*
D02*
G37*
G36*
X505355Y257290D02*
X502645D01*
X500028Y256589D01*
X497682Y255234D01*
X495766Y253318D01*
X494411Y250972D01*
X493710Y248355D01*
Y245645D01*
X494411Y243028D01*
X495766Y240682D01*
X497682Y238766D01*
X500028Y237411D01*
X502645Y236710D01*
X505355D01*
X507972Y237411D01*
X510318Y238766D01*
X512234Y240682D01*
X513589Y243028D01*
X514290Y245645D01*
Y248355D01*
X513589Y250972D01*
X512234Y253318D01*
X510318Y255234D01*
X507972Y256589D01*
X505355Y257290D01*
D02*
G37*
G36*
X479955D02*
X477245D01*
X474628Y256589D01*
X472282Y255234D01*
X470366Y253318D01*
X469011Y250972D01*
X468310Y248355D01*
Y245645D01*
X469011Y243028D01*
X469067Y242932D01*
X453268Y227132D01*
X452430Y225879D01*
X452136Y224400D01*
Y192263D01*
X451727Y191855D01*
X450960Y190002D01*
Y187997D01*
X451727Y186145D01*
X453145Y184727D01*
X454997Y183960D01*
X457002D01*
X458855Y184727D01*
X460273Y186145D01*
X461040Y187997D01*
Y190002D01*
X460273Y191855D01*
X459864Y192263D01*
Y222799D01*
X474532Y237467D01*
X474628Y237411D01*
X477245Y236710D01*
X479955D01*
X482572Y237411D01*
X484918Y238766D01*
X486834Y240682D01*
X488189Y243028D01*
X488890Y245645D01*
Y248355D01*
X488189Y250972D01*
X486834Y253318D01*
X484918Y255234D01*
X482572Y256589D01*
X479955Y257290D01*
D02*
G37*
G36*
X50585Y248640D02*
X47415D01*
X44353Y247819D01*
X41607Y246234D01*
X39366Y243993D01*
X37780Y241247D01*
X36960Y238185D01*
Y235015D01*
X37780Y231953D01*
X39366Y229207D01*
X41607Y226966D01*
X44353Y225380D01*
X47415Y224560D01*
X50585D01*
X53647Y225380D01*
X56393Y226966D01*
X58634Y229207D01*
X60219Y231953D01*
X61040Y235015D01*
Y238185D01*
X60219Y241247D01*
X58634Y243993D01*
X56393Y246234D01*
X53647Y247819D01*
X50585Y248640D01*
D02*
G37*
G36*
X571457Y229790D02*
X571270D01*
Y216270D01*
X584790D01*
Y216457D01*
X584222Y219314D01*
X583107Y222006D01*
X581488Y224428D01*
X579428Y226488D01*
X577006Y228107D01*
X574314Y229222D01*
X571457Y229790D01*
D02*
G37*
G36*
X568730D02*
X568543D01*
X565686Y229222D01*
X562994Y228107D01*
X560572Y226488D01*
X558512Y224428D01*
X556893Y222006D01*
X555778Y219314D01*
X555210Y216457D01*
Y216270D01*
X568730D01*
Y229790D01*
D02*
G37*
G36*
X514290Y231890D02*
X493710D01*
Y211310D01*
X514290D01*
Y231890D01*
D02*
G37*
G36*
X479955D02*
X477245D01*
X474628Y231189D01*
X472282Y229834D01*
X470366Y227918D01*
X469011Y225572D01*
X468310Y222955D01*
Y220245D01*
X469011Y217628D01*
X470366Y215282D01*
X472282Y213366D01*
X474628Y212011D01*
X477245Y211310D01*
X479955D01*
X482572Y212011D01*
X484918Y213366D01*
X486834Y215282D01*
X488189Y217628D01*
X488890Y220245D01*
Y222955D01*
X488189Y225572D01*
X486834Y227918D01*
X484918Y229834D01*
X482572Y231189D01*
X479955Y231890D01*
D02*
G37*
G36*
X584790Y213730D02*
X571270D01*
Y200210D01*
X571457D01*
X574314Y200778D01*
X577006Y201893D01*
X579428Y203512D01*
X581488Y205572D01*
X583107Y207994D01*
X584222Y210686D01*
X584790Y213543D01*
Y213730D01*
D02*
G37*
G36*
X568730D02*
X555210D01*
Y213543D01*
X555778Y210686D01*
X556893Y207994D01*
X558512Y205572D01*
X560572Y203512D01*
X562994Y201893D01*
X565686Y200778D01*
X568543Y200210D01*
X568730D01*
Y213730D01*
D02*
G37*
G36*
X239002Y200040D02*
X236998D01*
X235145Y199273D01*
X234757Y198885D01*
X224243D01*
X223855Y199273D01*
X222003Y200040D01*
X219998D01*
X218145Y199273D01*
X216727Y197855D01*
X215960Y196003D01*
Y193997D01*
X216727Y192145D01*
X218145Y190727D01*
X219998Y189960D01*
X222003D01*
X223855Y190727D01*
X224243Y191115D01*
X234757D01*
X235145Y190727D01*
X236998Y189960D01*
X239002D01*
X240855Y190727D01*
X242273Y192145D01*
X243040Y193997D01*
Y196003D01*
X242273Y197855D01*
X240855Y199273D01*
X239002Y200040D01*
D02*
G37*
G36*
X50585Y197840D02*
X50270D01*
Y187070D01*
X61040D01*
Y187385D01*
X60219Y190447D01*
X58634Y193193D01*
X56393Y195434D01*
X53647Y197020D01*
X50585Y197840D01*
D02*
G37*
G36*
X47730D02*
X47415D01*
X44353Y197020D01*
X41607Y195434D01*
X39366Y193193D01*
X37780Y190447D01*
X36960Y187385D01*
Y187070D01*
X47730D01*
Y197840D01*
D02*
G37*
G36*
X61040Y184530D02*
X50270D01*
Y173760D01*
X50585D01*
X53647Y174580D01*
X56393Y176166D01*
X58634Y178407D01*
X60219Y181153D01*
X61040Y184215D01*
Y184530D01*
D02*
G37*
G36*
X47730D02*
X36960D01*
Y184215D01*
X37780Y181153D01*
X39366Y178407D01*
X41607Y176166D01*
X44353Y174580D01*
X47415Y173760D01*
X47730D01*
Y184530D01*
D02*
G37*
G36*
X61040Y147040D02*
X36960D01*
Y122960D01*
X61040D01*
Y147040D01*
D02*
G37*
G36*
X583290Y135190D02*
X553710D01*
Y105610D01*
X583290D01*
Y135190D01*
D02*
G37*
G36*
X546000Y128139D02*
X545504Y128040D01*
X544997D01*
X544530Y127846D01*
X544034Y127748D01*
X543613Y127466D01*
X543145Y127273D01*
X542787Y126915D01*
X542366Y126634D01*
X542085Y126213D01*
X541727Y125855D01*
X541534Y125387D01*
X541252Y124966D01*
X541154Y124470D01*
X540960Y124003D01*
Y123496D01*
X540861Y123000D01*
Y89000D01*
X540960Y88504D01*
Y87998D01*
X541154Y87530D01*
X541252Y87034D01*
X541534Y86613D01*
X541727Y86145D01*
X542085Y85787D01*
X542366Y85366D01*
X542787Y85085D01*
X543145Y84727D01*
X543613Y84534D01*
X544034Y84252D01*
X544530Y84154D01*
X544997Y83960D01*
X545504D01*
X546000Y83861D01*
X546496Y83960D01*
X547002D01*
X547470Y84154D01*
X547966Y84252D01*
X548387Y84534D01*
X548855Y84727D01*
X549213Y85085D01*
X549634Y85366D01*
X549915Y85787D01*
X550273Y86145D01*
X550466Y86613D01*
X550748Y87034D01*
X550846Y87530D01*
X551040Y87998D01*
Y88504D01*
X551139Y89000D01*
Y123000D01*
X551040Y123496D01*
Y124003D01*
X550846Y124470D01*
X550748Y124966D01*
X550466Y125387D01*
X550273Y125855D01*
X549915Y126213D01*
X549634Y126634D01*
X549213Y126915D01*
X548855Y127273D01*
X548387Y127466D01*
X547966Y127748D01*
X547470Y127846D01*
X547002Y128040D01*
X546496D01*
X546000Y128139D01*
D02*
G37*
G36*
X690500Y501500D02*
X616502D01*
Y76500D01*
X690500D01*
Y501500D01*
D02*
G37*
G36*
X569957Y84390D02*
X569770D01*
Y70870D01*
X583290D01*
Y71057D01*
X582722Y73914D01*
X581607Y76606D01*
X579988Y79028D01*
X577928Y81088D01*
X575506Y82707D01*
X572814Y83822D01*
X569957Y84390D01*
D02*
G37*
G36*
X567230D02*
X567043D01*
X564186Y83822D01*
X561494Y82707D01*
X559072Y81088D01*
X557012Y79028D01*
X555393Y76606D01*
X554278Y73914D01*
X553710Y71057D01*
Y70870D01*
X567230D01*
Y84390D01*
D02*
G37*
G36*
X376000Y65139D02*
X345000D01*
X344504Y65040D01*
X343997D01*
X343530Y64846D01*
X343033Y64748D01*
X342613Y64466D01*
X342145Y64273D01*
X341787Y63915D01*
X341366Y63634D01*
X341085Y63213D01*
X340727Y62855D01*
X340534Y62387D01*
X340252Y61967D01*
X340154Y61470D01*
X339960Y61002D01*
Y60496D01*
X339861Y60000D01*
X339960Y59504D01*
Y58998D01*
X340154Y58530D01*
X340252Y58033D01*
X340534Y57613D01*
X340727Y57145D01*
X341085Y56787D01*
X341366Y56366D01*
X341787Y56085D01*
X342145Y55727D01*
X342613Y55534D01*
X343033Y55252D01*
X343530Y55154D01*
X343997Y54960D01*
X344504D01*
X345000Y54861D01*
X376000D01*
X376496Y54960D01*
X377002D01*
X377470Y55154D01*
X377966Y55252D01*
X378387Y55534D01*
X378855Y55727D01*
X379213Y56085D01*
X379258Y56115D01*
X403757D01*
X404145Y55727D01*
X405998Y54960D01*
X408003D01*
X409855Y55727D01*
X410243Y56115D01*
X431757D01*
X432145Y55727D01*
X433997Y54960D01*
X436003D01*
X437855Y55727D01*
X438243Y56115D01*
X459757D01*
X460145Y55727D01*
X461997Y54960D01*
X464002D01*
X465855Y55727D01*
X467273Y57145D01*
X468040Y58998D01*
Y61002D01*
X467273Y62855D01*
X465855Y64273D01*
X464002Y65040D01*
X461997D01*
X460145Y64273D01*
X459757Y63885D01*
X438243D01*
X437855Y64273D01*
X436003Y65040D01*
X433997D01*
X432145Y64273D01*
X431757Y63885D01*
X410243D01*
X409855Y64273D01*
X408003Y65040D01*
X405998D01*
X404145Y64273D01*
X403757Y63885D01*
X379258D01*
X379213Y63915D01*
X378855Y64273D01*
X378387Y64466D01*
X377966Y64748D01*
X377470Y64846D01*
X377002Y65040D01*
X376496D01*
X376000Y65139D01*
D02*
G37*
G36*
X583290Y68330D02*
X569770D01*
Y54810D01*
X569957D01*
X572814Y55378D01*
X575506Y56493D01*
X577928Y58112D01*
X579988Y60172D01*
X581607Y62594D01*
X582722Y65286D01*
X583290Y68143D01*
Y68330D01*
D02*
G37*
G36*
X567230D02*
X553710D01*
Y68143D01*
X554278Y65286D01*
X555393Y62594D01*
X557012Y60172D01*
X559072Y58112D01*
X561494Y56493D01*
X564186Y55378D01*
X567043Y54810D01*
X567230D01*
Y68330D01*
D02*
G37*
G36*
X50000Y69132D02*
X46267Y68765D01*
X42678Y67676D01*
X39371Y65908D01*
X36472Y63528D01*
X34092Y60629D01*
X32324Y57322D01*
X31235Y53733D01*
X30868Y50000D01*
X31235Y46267D01*
X32324Y42678D01*
X34092Y39371D01*
X36472Y36472D01*
X39371Y34092D01*
X42678Y32324D01*
X46267Y31235D01*
X50000Y30868D01*
X53733Y31235D01*
X57322Y32324D01*
X60629Y34092D01*
X63528Y36472D01*
X65908Y39371D01*
X67676Y42678D01*
X68765Y46267D01*
X69132Y50000D01*
X68765Y53733D01*
X67676Y57322D01*
X65908Y60629D01*
X63528Y63528D01*
X60629Y65908D01*
X57322Y67676D01*
X53733Y68765D01*
X50000Y69132D01*
D02*
G37*
G36*
X161742Y140790D02*
X158258D01*
X154840Y140110D01*
X151621Y138777D01*
X148723Y136841D01*
X146259Y134377D01*
X144323Y131479D01*
X142990Y128260D01*
X142310Y124842D01*
Y121358D01*
X142990Y117940D01*
X144323Y114721D01*
X146259Y111823D01*
X148723Y109359D01*
X151621Y107423D01*
X152395Y107103D01*
Y88000D01*
Y62897D01*
X151621Y62577D01*
X148723Y60641D01*
X146259Y58177D01*
X144323Y55279D01*
X142990Y52060D01*
X142310Y48642D01*
Y45158D01*
X142990Y41740D01*
X144323Y38521D01*
X146259Y35623D01*
X148723Y33159D01*
X151621Y31223D01*
X154840Y29890D01*
X158258Y29210D01*
X161742D01*
X165160Y29890D01*
X168379Y31223D01*
X171277Y33159D01*
X173741Y35623D01*
X175677Y38521D01*
X177010Y41740D01*
X177690Y45158D01*
Y48642D01*
X177010Y52060D01*
X175677Y55279D01*
X173741Y58177D01*
X171277Y60641D01*
X168379Y62577D01*
X167605Y62897D01*
Y88000D01*
Y107103D01*
X168379Y107423D01*
X171277Y109359D01*
X173741Y111823D01*
X175677Y114721D01*
X177010Y117940D01*
X177690Y121358D01*
Y124842D01*
X177010Y128260D01*
X175677Y131479D01*
X173741Y134377D01*
X171277Y136841D01*
X168379Y138777D01*
X165160Y140110D01*
X161742Y140790D01*
D02*
G37*
G36*
X670000Y44132D02*
X666267Y43765D01*
X662679Y42676D01*
X659371Y40908D01*
X656472Y38528D01*
X654092Y35629D01*
X652324Y32322D01*
X651236Y28733D01*
X650868Y25000D01*
X651236Y21267D01*
X652324Y17679D01*
X654092Y14371D01*
X656472Y11472D01*
X659371Y9092D01*
X662679Y7324D01*
X666267Y6235D01*
X670000Y5868D01*
X673733Y6235D01*
X677322Y7324D01*
X680629Y9092D01*
X683529Y11472D01*
X685908Y14371D01*
X687676Y17679D01*
X688764Y21267D01*
X689132Y25000D01*
X688764Y28733D01*
X687676Y32322D01*
X685908Y35629D01*
X683529Y38528D01*
X680629Y40908D01*
X677322Y42676D01*
X673733Y43765D01*
X670000Y44132D01*
D02*
G37*
G36*
X486590Y-27560D02*
X466510D01*
Y-47640D01*
X486590D01*
Y-27560D01*
D02*
G37*
G36*
X450172D02*
X447528D01*
X444975Y-28244D01*
X442685Y-29566D01*
X440816Y-31435D01*
X439494Y-33725D01*
X438810Y-36278D01*
Y-38922D01*
X439494Y-41475D01*
X440816Y-43765D01*
X442685Y-45634D01*
X444975Y-46956D01*
X447528Y-47640D01*
X450172D01*
X452725Y-46956D01*
X455015Y-45634D01*
X456884Y-43765D01*
X458206Y-41475D01*
X458890Y-38922D01*
Y-36278D01*
X458206Y-33725D01*
X456884Y-31435D01*
X455015Y-29566D01*
X452725Y-28244D01*
X450172Y-27560D01*
D02*
G37*
G36*
X422472D02*
X419828D01*
X417275Y-28244D01*
X414985Y-29566D01*
X413116Y-31435D01*
X411794Y-33725D01*
X411110Y-36278D01*
Y-38922D01*
X411794Y-41475D01*
X413116Y-43765D01*
X414985Y-45634D01*
X417275Y-46956D01*
X419828Y-47640D01*
X422472D01*
X425025Y-46956D01*
X427315Y-45634D01*
X429184Y-43765D01*
X430506Y-41475D01*
X431190Y-38922D01*
Y-36278D01*
X430506Y-33725D01*
X429184Y-31435D01*
X427315Y-29566D01*
X425025Y-28244D01*
X422472Y-27560D01*
D02*
G37*
G36*
X394772D02*
X392128D01*
X389575Y-28244D01*
X387285Y-29566D01*
X385416Y-31435D01*
X384094Y-33725D01*
X383410Y-36278D01*
Y-38922D01*
X384094Y-41475D01*
X385416Y-43765D01*
X387285Y-45634D01*
X389575Y-46956D01*
X392128Y-47640D01*
X394772D01*
X397325Y-46956D01*
X399615Y-45634D01*
X401484Y-43765D01*
X402806Y-41475D01*
X403490Y-38922D01*
Y-36278D01*
X402806Y-33725D01*
X401484Y-31435D01*
X399615Y-29566D01*
X397325Y-28244D01*
X394772Y-27560D01*
D02*
G37*
G36*
X367072D02*
X364428D01*
X361875Y-28244D01*
X359585Y-29566D01*
X357716Y-31435D01*
X356394Y-33725D01*
X355710Y-36278D01*
Y-38922D01*
X356394Y-41475D01*
X357716Y-43765D01*
X359585Y-45634D01*
X361875Y-46956D01*
X364428Y-47640D01*
X367072D01*
X369625Y-46956D01*
X371915Y-45634D01*
X373784Y-43765D01*
X375106Y-41475D01*
X375790Y-38922D01*
Y-36278D01*
X375106Y-33725D01*
X373784Y-31435D01*
X371915Y-29566D01*
X369625Y-28244D01*
X367072Y-27560D01*
D02*
G37*
G36*
X464022Y-55960D02*
X463970D01*
Y-64730D01*
X472740D01*
Y-64678D01*
X472056Y-62125D01*
X470734Y-59835D01*
X468865Y-57966D01*
X466575Y-56644D01*
X464022Y-55960D01*
D02*
G37*
G36*
X408622D02*
X408570D01*
Y-64730D01*
X417340D01*
Y-64678D01*
X416656Y-62125D01*
X415334Y-59835D01*
X413465Y-57966D01*
X411175Y-56644D01*
X408622Y-55960D01*
D02*
G37*
G36*
X436322D02*
X436270D01*
Y-64730D01*
X445040D01*
Y-64678D01*
X444356Y-62125D01*
X443034Y-59835D01*
X441165Y-57966D01*
X438875Y-56644D01*
X436322Y-55960D01*
D02*
G37*
G36*
X380922D02*
X380870D01*
Y-64730D01*
X389640D01*
Y-64678D01*
X388956Y-62125D01*
X387634Y-59835D01*
X385765Y-57966D01*
X383475Y-56644D01*
X380922Y-55960D01*
D02*
G37*
G36*
X378330D02*
X378278D01*
X375725Y-56644D01*
X373435Y-57966D01*
X371566Y-59835D01*
X370244Y-62125D01*
X369560Y-64678D01*
Y-64730D01*
X378330D01*
Y-55960D01*
D02*
G37*
G36*
X406030D02*
X405978D01*
X403425Y-56644D01*
X401135Y-57966D01*
X399266Y-59835D01*
X397944Y-62125D01*
X397260Y-64678D01*
Y-64730D01*
X406030D01*
Y-55960D01*
D02*
G37*
G36*
X433730D02*
X433678D01*
X431125Y-56644D01*
X428835Y-57966D01*
X426966Y-59835D01*
X425644Y-62125D01*
X424960Y-64678D01*
Y-64730D01*
X433730D01*
Y-55960D01*
D02*
G37*
G36*
X461430D02*
X461378D01*
X458825Y-56644D01*
X456535Y-57966D01*
X454666Y-59835D01*
X453344Y-62125D01*
X452660Y-64678D01*
Y-64730D01*
X461430D01*
Y-55960D01*
D02*
G37*
G36*
X123388Y-59460D02*
X123270D01*
Y-68730D01*
X132540D01*
Y-68612D01*
X131822Y-65932D01*
X130434Y-63528D01*
X128472Y-61566D01*
X126068Y-60178D01*
X123388Y-59460D01*
D02*
G37*
G36*
X120730D02*
X120612D01*
X117932Y-60178D01*
X115528Y-61566D01*
X113566Y-63528D01*
X112178Y-65932D01*
X111460Y-68612D01*
Y-68730D01*
X120730D01*
Y-59460D01*
D02*
G37*
G36*
X472740Y-67270D02*
X463970D01*
Y-76040D01*
X464022D01*
X466575Y-75356D01*
X468865Y-74034D01*
X470734Y-72165D01*
X472056Y-69875D01*
X472740Y-67322D01*
Y-67270D01*
D02*
G37*
G36*
X461430D02*
X452660D01*
Y-67322D01*
X453344Y-69875D01*
X454666Y-72165D01*
X456535Y-74034D01*
X458825Y-75356D01*
X461378Y-76040D01*
X461430D01*
Y-67270D01*
D02*
G37*
G36*
X445040D02*
X436270D01*
Y-76040D01*
X436322D01*
X438875Y-75356D01*
X441165Y-74034D01*
X443034Y-72165D01*
X444356Y-69875D01*
X445040Y-67322D01*
Y-67270D01*
D02*
G37*
G36*
X433730D02*
X424960D01*
Y-67322D01*
X425644Y-69875D01*
X426966Y-72165D01*
X428835Y-74034D01*
X431125Y-75356D01*
X433678Y-76040D01*
X433730D01*
Y-67270D01*
D02*
G37*
G36*
X417340D02*
X408570D01*
Y-76040D01*
X408622D01*
X411175Y-75356D01*
X413465Y-74034D01*
X415334Y-72165D01*
X416656Y-69875D01*
X417340Y-67322D01*
Y-67270D01*
D02*
G37*
G36*
X406030D02*
X397260D01*
Y-67322D01*
X397944Y-69875D01*
X399266Y-72165D01*
X401135Y-74034D01*
X403425Y-75356D01*
X405978Y-76040D01*
X406030D01*
Y-67270D01*
D02*
G37*
G36*
X389640D02*
X380870D01*
Y-76040D01*
X380922D01*
X383475Y-75356D01*
X385765Y-74034D01*
X387634Y-72165D01*
X388956Y-69875D01*
X389640Y-67322D01*
Y-67270D01*
D02*
G37*
G36*
X378330D02*
X369560D01*
Y-67322D01*
X370244Y-69875D01*
X371566Y-72165D01*
X373435Y-74034D01*
X375725Y-75356D01*
X378278Y-76040D01*
X378330D01*
Y-67270D01*
D02*
G37*
G36*
X548239Y-25260D02*
X544061D01*
X539935Y-25914D01*
X535962Y-27204D01*
X532240Y-29101D01*
X528860Y-31556D01*
X525906Y-34510D01*
X523451Y-37890D01*
X521554Y-41612D01*
X520263Y-45585D01*
X519610Y-49711D01*
Y-53889D01*
X520263Y-58015D01*
X521554Y-61988D01*
X523451Y-65710D01*
X525906Y-69090D01*
X528860Y-72044D01*
X532240Y-74499D01*
X535962Y-76396D01*
X539935Y-77687D01*
X544061Y-78340D01*
X548239D01*
X552365Y-77687D01*
X556338Y-76396D01*
X560060Y-74499D01*
X563440Y-72044D01*
X566394Y-69090D01*
X568849Y-65710D01*
X570746Y-61988D01*
X572037Y-58015D01*
X572690Y-53889D01*
Y-49711D01*
X572037Y-45585D01*
X570746Y-41612D01*
X568849Y-37890D01*
X566394Y-34510D01*
X563440Y-31556D01*
X560060Y-29101D01*
X556338Y-27204D01*
X552365Y-25914D01*
X548239Y-25260D01*
D02*
G37*
G36*
X298239D02*
X294061D01*
X289935Y-25914D01*
X285962Y-27204D01*
X282240Y-29101D01*
X278860Y-31556D01*
X275906Y-34510D01*
X273451Y-37890D01*
X271554Y-41612D01*
X270264Y-45585D01*
X269610Y-49711D01*
Y-53889D01*
X270264Y-58015D01*
X271554Y-61988D01*
X273451Y-65710D01*
X275906Y-69090D01*
X278860Y-72044D01*
X282240Y-74499D01*
X285962Y-76396D01*
X289935Y-77687D01*
X294061Y-78340D01*
X298239D01*
X302365Y-77687D01*
X306338Y-76396D01*
X310060Y-74499D01*
X313440Y-72044D01*
X316394Y-69090D01*
X318849Y-65710D01*
X320746Y-61988D01*
X322037Y-58015D01*
X322690Y-53889D01*
Y-49711D01*
X322037Y-45585D01*
X320746Y-41612D01*
X318849Y-37890D01*
X316394Y-34510D01*
X313440Y-31556D01*
X310060Y-29101D01*
X306338Y-27204D01*
X302365Y-25914D01*
X298239Y-25260D01*
D02*
G37*
G36*
X157940Y-59460D02*
X136860D01*
Y-80540D01*
X157940D01*
Y-59460D01*
D02*
G37*
G36*
X132540Y-71270D02*
X123270D01*
Y-80540D01*
X123388D01*
X126068Y-79822D01*
X128472Y-78434D01*
X130434Y-76472D01*
X131822Y-74068D01*
X132540Y-71388D01*
Y-71270D01*
D02*
G37*
G36*
X120730D02*
X111460D01*
Y-71388D01*
X112178Y-74068D01*
X113566Y-76472D01*
X115528Y-78434D01*
X117932Y-79822D01*
X120612Y-80540D01*
X120730D01*
Y-71270D01*
D02*
G37*
G36*
X97988Y-59460D02*
X95212D01*
X92532Y-60178D01*
X90128Y-61566D01*
X88166Y-63528D01*
X86778Y-65932D01*
X86060Y-68612D01*
Y-71388D01*
X86778Y-74068D01*
X88166Y-76472D01*
X90128Y-78434D01*
X92532Y-79822D01*
X95212Y-80540D01*
X97988D01*
X100668Y-79822D01*
X103072Y-78434D01*
X105034Y-76472D01*
X106422Y-74068D01*
X107140Y-71388D01*
Y-68612D01*
X106422Y-65932D01*
X105034Y-63528D01*
X103072Y-61566D01*
X100668Y-60178D01*
X97988Y-59460D01*
D02*
G37*
%LPD*%
G36*
X689000Y78000D02*
X618002D01*
Y500000D01*
X689000D01*
Y78000D01*
D02*
G37*
%LPC*%
G36*
X683920Y494920D02*
X623082D01*
Y491016D01*
X683920D01*
Y494920D01*
D02*
G37*
G36*
Y489064D02*
X623082D01*
Y487113D01*
X683920D01*
Y489064D01*
D02*
G37*
G36*
Y479305D02*
X623082D01*
Y477353D01*
X683920D01*
Y479305D01*
D02*
G37*
G36*
Y473450D02*
X623082D01*
Y471498D01*
X683920D01*
Y473450D01*
D02*
G37*
G36*
Y469546D02*
X623082D01*
Y465642D01*
X683920D01*
Y469546D01*
D02*
G37*
G36*
Y459787D02*
X623082D01*
Y453931D01*
X683920D01*
Y459787D01*
D02*
G37*
G36*
Y451979D02*
X623082D01*
Y450028D01*
X683920D01*
Y451979D01*
D02*
G37*
G36*
Y448076D02*
X623082D01*
Y440269D01*
X683920D01*
Y448076D01*
D02*
G37*
G36*
Y438317D02*
X623082D01*
Y432461D01*
X683920D01*
Y438317D01*
D02*
G37*
G36*
Y430509D02*
X623082D01*
Y428558D01*
X683920D01*
Y430509D01*
D02*
G37*
G36*
Y426606D02*
X623082D01*
Y422702D01*
X683920D01*
Y426606D01*
D02*
G37*
G36*
Y418798D02*
X623082D01*
Y416847D01*
X683920D01*
Y418798D01*
D02*
G37*
G36*
Y409039D02*
X623082D01*
Y401232D01*
X683920D01*
Y409039D01*
D02*
G37*
G36*
Y399280D02*
X623082D01*
Y397328D01*
X683920D01*
Y399280D01*
D02*
G37*
G36*
Y393424D02*
X623082D01*
Y391473D01*
X683920D01*
Y393424D01*
D02*
G37*
G36*
Y387569D02*
X623082D01*
Y385617D01*
X683920D01*
Y387569D01*
D02*
G37*
G36*
Y377810D02*
X623082D01*
Y373906D01*
X683920D01*
Y377810D01*
D02*
G37*
G36*
Y371954D02*
X623082D01*
Y370002D01*
X683920D01*
Y371954D01*
D02*
G37*
G36*
Y366099D02*
X623082D01*
Y362195D01*
X683920D01*
Y366099D01*
D02*
G37*
G36*
Y354388D02*
X623082D01*
Y352436D01*
X683920D01*
Y354388D01*
D02*
G37*
G36*
Y350484D02*
X623082D01*
Y348532D01*
X683920D01*
Y350484D01*
D02*
G37*
G36*
Y344628D02*
X623082D01*
Y338773D01*
X683920D01*
Y344628D01*
D02*
G37*
G36*
Y336821D02*
X623082D01*
Y334869D01*
X683920D01*
Y336821D01*
D02*
G37*
G36*
Y332917D02*
X623082D01*
Y325110D01*
X683920D01*
Y332917D01*
D02*
G37*
G36*
Y323158D02*
X623082D01*
Y319255D01*
X683920D01*
Y323158D01*
D02*
G37*
G36*
Y317303D02*
X623082D01*
Y313399D01*
X683920D01*
Y317303D01*
D02*
G37*
G36*
Y309495D02*
X623082D01*
Y305592D01*
X683920D01*
Y309495D01*
D02*
G37*
G36*
Y301688D02*
X623082D01*
Y299736D01*
X683920D01*
Y301688D01*
D02*
G37*
G36*
Y295833D02*
X623082D01*
Y291929D01*
X683920D01*
Y295833D01*
D02*
G37*
G36*
Y288025D02*
X623082D01*
Y286073D01*
X683920D01*
Y288025D01*
D02*
G37*
G36*
Y280218D02*
X623082D01*
Y276314D01*
X683920D01*
Y280218D01*
D02*
G37*
G36*
Y274362D02*
X623082D01*
Y270459D01*
X683920D01*
Y274362D01*
D02*
G37*
G36*
Y266555D02*
X623082D01*
Y262651D01*
X683920D01*
Y266555D01*
D02*
G37*
G36*
Y258748D02*
X623082D01*
Y256796D01*
X683920D01*
Y258748D01*
D02*
G37*
G36*
Y254844D02*
X623082D01*
Y250940D01*
X683920D01*
Y254844D01*
D02*
G37*
G36*
Y245085D02*
X623082D01*
Y243133D01*
X683920D01*
Y245085D01*
D02*
G37*
G36*
Y237277D02*
X623082D01*
Y235326D01*
X683920D01*
Y237277D01*
D02*
G37*
G36*
Y233374D02*
X623082D01*
Y225566D01*
X683920D01*
Y233374D01*
D02*
G37*
G36*
Y223615D02*
X623082D01*
Y217759D01*
X683920D01*
Y223615D01*
D02*
G37*
G36*
Y215807D02*
X623082D01*
Y213855D01*
X683920D01*
Y215807D01*
D02*
G37*
G36*
Y211903D02*
X623082D01*
Y208000D01*
X683920D01*
Y211903D01*
D02*
G37*
G36*
Y204096D02*
X623082D01*
Y202144D01*
X683920D01*
Y204096D01*
D02*
G37*
G36*
Y194337D02*
X623082D01*
Y190433D01*
X683920D01*
Y194337D01*
D02*
G37*
G36*
Y186530D02*
X623082D01*
Y184578D01*
X683920D01*
Y186530D01*
D02*
G37*
G36*
Y182626D02*
X623082D01*
Y180674D01*
X683920D01*
Y182626D01*
D02*
G37*
G36*
Y172867D02*
X623082D01*
Y170915D01*
X683920D01*
Y172867D01*
D02*
G37*
G36*
Y165059D02*
X623082D01*
Y157252D01*
X683920D01*
Y165059D01*
D02*
G37*
G36*
Y155300D02*
X623082D01*
Y153348D01*
X683920D01*
Y155300D01*
D02*
G37*
G36*
Y151397D02*
X623082D01*
Y147493D01*
X683920D01*
Y151397D01*
D02*
G37*
G36*
Y139685D02*
X623082D01*
Y137734D01*
X683920D01*
Y139685D01*
D02*
G37*
G36*
Y135782D02*
X623082D01*
Y133830D01*
X683920D01*
Y135782D01*
D02*
G37*
G36*
Y129926D02*
X623082D01*
Y127975D01*
X683920D01*
Y129926D01*
D02*
G37*
G36*
Y122119D02*
X623082D01*
Y120167D01*
X683920D01*
Y122119D01*
D02*
G37*
G36*
Y114312D02*
X623082D01*
Y110408D01*
X683920D01*
Y114312D01*
D02*
G37*
G36*
Y108456D02*
X623082D01*
Y104552D01*
X683920D01*
Y108456D01*
D02*
G37*
G36*
Y98697D02*
X623082D01*
Y92841D01*
X683920D01*
Y98697D01*
D02*
G37*
G36*
Y90890D02*
X623082D01*
Y88938D01*
X683920D01*
Y90890D01*
D02*
G37*
G36*
Y86986D02*
X623082D01*
Y83082D01*
X683920D01*
Y86986D01*
D02*
G37*
%LPD*%
D10*
X456000Y189000D02*
Y224400D01*
X478600Y247000D01*
X372000Y206000D02*
X466000Y112000D01*
X372000Y206000D02*
Y265000D01*
X466000Y106000D02*
Y112000D01*
X462000Y102000D02*
X466000Y106000D01*
X436000Y102000D02*
X462000D01*
X325250Y241750D02*
X458000Y109000D01*
X458000D01*
X483000Y91000D02*
X493000Y81000D01*
X435000Y91000D02*
X483000D01*
X429000Y97000D02*
X435000Y91000D01*
X429000Y97000D02*
Y128125D01*
X319000Y238125D02*
X429000Y128125D01*
X319000Y238125D02*
Y339000D01*
X325250Y241750D02*
Y335750D01*
X325000Y336000D02*
X325250Y335750D01*
D11*
X38303Y347111D02*
G03*
X54303Y363111I0J16000D01*
G01*
D02*
G03*
X38303Y379111I-16000J0D01*
G01*
D02*
G03*
X22304Y363111I0J-16000D01*
G01*
D02*
G03*
X38303Y347111I16000J0D01*
G01*
X50000Y34000D02*
G03*
X66000Y50000I0J16000D01*
G01*
D02*
G03*
X50000Y66000I-16000J0D01*
G01*
D02*
G03*
X34000Y50000I0J-16000D01*
G01*
D02*
G03*
X50000Y34000I16000J0D01*
G01*
X670000Y591000D02*
G03*
X654000Y575000I0J-16000D01*
G01*
X686000D02*
G03*
X670000Y591000I-16000J0D01*
G01*
Y559000D02*
G03*
X686000Y575000I0J16000D01*
G01*
X654000D02*
G03*
X670000Y559000I16000J0D01*
G01*
X670000Y41000D02*
G03*
X654000Y25000I0J-16000D01*
G01*
X686000D02*
G03*
X670000Y41000I-16000J0D01*
G01*
Y9000D02*
G03*
X686000Y25000I0J16000D01*
G01*
X654000D02*
G03*
X670000Y9000I16000J0D01*
G01*
X0Y-100000D02*
Y600000D01*
X699000D01*
Y-100000D02*
Y600000D01*
X0Y-100000D02*
X699000D01*
D12*
X352929Y283000D02*
X367770D01*
X329000Y306929D02*
X352929Y283000D01*
X329000Y306929D02*
Y311071D01*
X333722Y315793D01*
X333728D01*
X353571Y324000D02*
X358000D01*
X338571Y309000D02*
X353571Y324000D01*
X334000Y309000D02*
X338571D01*
X358000Y312230D02*
Y324000D01*
X372770D01*
D57*
X122000Y-70000D02*
D03*
X96600D02*
D03*
D66*
X568500Y120400D02*
D03*
X570000Y265800D02*
D03*
X572000Y405800D02*
D03*
Y545800D02*
D03*
D67*
X568500Y69600D02*
D03*
X570000Y215000D02*
D03*
X572000Y355000D02*
D03*
Y495000D02*
D03*
D68*
X160000Y46900D02*
D03*
Y123100D02*
D03*
Y358100D02*
D03*
Y281900D02*
D03*
D74*
X345000Y60000D02*
X376000D01*
X546000Y89000D02*
Y123000D01*
X69683Y575533D02*
X70900Y576750D01*
X69683Y559683D02*
Y575533D01*
X45000Y535000D02*
X69683Y559683D01*
X45000Y461000D02*
Y535000D01*
X70900Y414250D02*
Y435100D01*
X45000Y461000D02*
X70900Y435100D01*
X630000Y555000D02*
Y587000D01*
D75*
X435000Y60000D02*
X463000D01*
X407000D02*
X435000D01*
X281730Y211817D02*
X282000Y211547D01*
X281730Y211817D02*
Y244770D01*
X282000Y204000D02*
Y211547D01*
X281730Y244770D02*
X282960Y246000D01*
X341760Y588040D02*
X358400Y571400D01*
X300040Y588040D02*
X341760D01*
X282960Y570960D02*
X300040Y588040D01*
X282960Y246000D02*
Y570960D01*
X302000Y584000D02*
X320400D01*
X333000Y571400D01*
X287000Y569000D02*
X302000Y584000D01*
X287000Y214000D02*
Y569000D01*
X377270Y270270D02*
X394000Y287000D01*
X360270Y270270D02*
X377270D01*
X353231Y242049D02*
Y263231D01*
X360270Y270270D01*
X388000Y351000D02*
Y404000D01*
X376000Y60000D02*
X407000D01*
X221000Y195000D02*
X238000D01*
X215000Y284000D02*
X244000D01*
X294730Y412270D02*
Y558530D01*
X307600Y571400D01*
X294730Y412270D02*
X300000Y407000D01*
Y536310D02*
X307600Y543910D01*
X300000Y429000D02*
Y536310D01*
X307600Y543910D02*
Y546000D01*
X148000Y446900D02*
Y550000D01*
X128000Y426900D02*
X148000Y446900D01*
X394017Y348604D02*
X394035Y348586D01*
X394017Y348604D02*
Y392982D01*
X394000Y393000D02*
X394017Y392982D01*
X466000Y492000D02*
X478000D01*
X437000Y282500D02*
X450000Y269500D01*
Y269000D02*
Y269500D01*
X437000Y282500D02*
Y283000D01*
X307000Y447000D02*
X320000Y460000D01*
X307000Y361730D02*
Y447000D01*
Y361730D02*
X314730Y354000D01*
X320000Y349000D02*
Y434600D01*
X448730Y433000D02*
X472000D01*
X406000Y467000D02*
Y534000D01*
Y467000D02*
X437000Y436000D01*
X438000Y482000D02*
X448000Y492000D01*
X466000D01*
D76*
X160000Y88000D02*
Y123100D01*
Y46900D02*
Y88000D01*
D78*
X421150Y-37600D02*
D03*
X448850D02*
D03*
X365750D02*
D03*
X393450D02*
D03*
X379600Y-66000D02*
D03*
X407300D02*
D03*
X435000D02*
D03*
X462700D02*
D03*
D79*
X476550Y-37600D02*
D03*
D80*
X546150Y-51800D02*
D03*
X296150D02*
D03*
D81*
X62000Y531200D02*
D03*
D82*
X79800Y459800D02*
D03*
Y521000D02*
D03*
X62000Y470000D02*
D03*
Y510800D02*
D03*
X79800Y480200D02*
D03*
Y500600D02*
D03*
X62000Y490400D02*
D03*
X128000Y426900D02*
D03*
Y564100D02*
D03*
Y449800D02*
D03*
Y541200D02*
D03*
D83*
X36600Y559000D02*
D03*
Y432000D02*
D03*
D84*
X70900Y576750D02*
D03*
Y414250D02*
D03*
D85*
X345400Y434600D02*
D03*
X504000Y221600D02*
D03*
D86*
X345400Y460000D02*
D03*
Y485400D02*
D03*
X320000Y434600D02*
D03*
Y460000D02*
D03*
Y485400D02*
D03*
X333000Y571400D02*
D03*
X307600D02*
D03*
X358400Y546000D02*
D03*
X333000D02*
D03*
X307600D02*
D03*
X504000Y247000D02*
D03*
Y272400D02*
D03*
X478600Y221600D02*
D03*
Y247000D02*
D03*
Y272400D02*
D03*
D87*
X49000Y135000D02*
D03*
D88*
Y185800D02*
D03*
Y236600D02*
D03*
Y287400D02*
D03*
D89*
X147400Y-70000D02*
D03*
D90*
X358400Y571400D02*
D03*
D91*
X331000Y384000D02*
D03*
X410000Y186000D02*
D03*
X393000Y111900D02*
D03*
X456000Y189000D02*
D03*
X345000Y60000D02*
D03*
X282000Y204000D02*
D03*
X287000Y214000D02*
D03*
X546000Y89000D02*
D03*
Y123000D02*
D03*
X458000Y109000D02*
D03*
X493000Y81000D02*
D03*
X436000Y102000D02*
D03*
X372000Y265000D02*
D03*
X319000Y339000D02*
D03*
X388000Y404000D02*
D03*
X325000Y336000D02*
D03*
X463000Y60000D02*
D03*
X376000D02*
D03*
X435000D02*
D03*
X407000D02*
D03*
X221000Y195000D02*
D03*
X238000D02*
D03*
X353231Y242049D02*
D03*
X394000Y287000D02*
D03*
X215000Y284000D02*
D03*
X244000D02*
D03*
X261000Y343000D02*
D03*
X259000Y297000D02*
D03*
X300000Y407000D02*
D03*
Y429000D02*
D03*
X148000Y550000D02*
D03*
X168000Y473000D02*
D03*
X166000Y166000D02*
D03*
X177000D02*
D03*
X367770Y283000D02*
D03*
X333728Y315793D02*
D03*
X157000Y169000D02*
D03*
X148286Y168500D02*
D03*
X394000Y393000D02*
D03*
X394035Y348586D02*
D03*
X388000Y351000D02*
D03*
X630000Y555000D02*
D03*
Y587000D02*
D03*
X478000Y492000D02*
D03*
X450000Y269000D02*
D03*
X437000Y283000D02*
D03*
X472000Y433000D02*
D03*
X502000Y393000D02*
D03*
X363000Y265000D02*
D03*
X358000Y312230D02*
D03*
X372770Y324000D02*
D03*
X358000D02*
D03*
X334000Y309000D02*
D03*
X314730Y354000D02*
D03*
X320000Y349000D02*
D03*
X391000Y318000D02*
D03*
X340000Y317500D02*
D03*
X260000Y269000D02*
D03*
X205780Y396000D02*
D03*
X339000Y112750D02*
D03*
X342000Y181000D02*
D03*
X278000Y121000D02*
D03*
X448730Y433000D02*
D03*
X434000Y495000D02*
D03*
X406000Y534000D02*
D03*
X437000Y436000D02*
D03*
X466000Y492000D02*
D03*
X438000Y482000D02*
D03*
M02*
