G04*
G04 #@! TF.GenerationSoftware,Altium Limited,Altium Designer,23.2.1 (34)*
G04*
G04 Layer_Color=16711935*
%FSLAX44Y44*%
%MOMM*%
G71*
G04*
G04 #@! TF.SameCoordinates,02241748-B98C-4FBF-A84C-9F2BC43F6668*
G04*
G04*
G04 #@! TF.FilePolarity,Negative*
G04*
G01*
G75*
%ADD11C,0.1000*%
%ADD57C,1.6000*%
%ADD58R,1.6000X1.6000*%
%ADD59C,4.9000*%
%ADD60R,1.4000X1.4000*%
%ADD61C,1.4000*%
%ADD62C,3.3500*%
%ADD63C,2.6000*%
%ADD64R,1.6500X1.6500*%
%ADD65C,1.6500*%
%ADD66R,2.4500X2.4500*%
%ADD67C,2.4500*%
%ADD68C,3.0300*%
%ADD69R,2.0000X2.0000*%
%ADD70C,2.0000*%
%ADD71R,1.7000X1.7000*%
%ADD72C,1.7000*%
%ADD73R,1.6500X1.6500*%
D11*
X38303Y347111D02*
G03*
X54303Y363111I0J16000D01*
G01*
D02*
G03*
X38303Y379111I-16000J0D01*
G01*
D02*
G03*
X22304Y363111I0J-16000D01*
G01*
D02*
G03*
X38303Y347111I16000J0D01*
G01*
X50000Y34000D02*
G03*
X66000Y50000I0J16000D01*
G01*
D02*
G03*
X50000Y66000I-16000J0D01*
G01*
D02*
G03*
X34000Y50000I0J-16000D01*
G01*
D02*
G03*
X50000Y34000I16000J0D01*
G01*
X670000Y591000D02*
G03*
X654000Y575000I0J-16000D01*
G01*
X686000D02*
G03*
X670000Y591000I-16000J0D01*
G01*
Y559000D02*
G03*
X686000Y575000I0J16000D01*
G01*
X654000D02*
G03*
X670000Y559000I16000J0D01*
G01*
X670000Y41000D02*
G03*
X654000Y25000I0J-16000D01*
G01*
X686000D02*
G03*
X670000Y41000I-16000J0D01*
G01*
Y9000D02*
G03*
X686000Y25000I0J16000D01*
G01*
X654000D02*
G03*
X670000Y9000I16000J0D01*
G01*
X0Y-100000D02*
Y600000D01*
X699000D01*
Y-100000D02*
Y600000D01*
X0Y-100000D02*
X699000D01*
D57*
X421150Y-37600D02*
D03*
X448850D02*
D03*
X365750D02*
D03*
X393450D02*
D03*
X379600Y-66000D02*
D03*
X407300D02*
D03*
X435000D02*
D03*
X462700D02*
D03*
D58*
X476550Y-37600D02*
D03*
D59*
X546150Y-51800D02*
D03*
X296150D02*
D03*
D60*
X62000Y531200D02*
D03*
D61*
X79800Y459800D02*
D03*
Y521000D02*
D03*
X62000Y470000D02*
D03*
Y510800D02*
D03*
X79800Y480200D02*
D03*
Y500600D02*
D03*
X62000Y490400D02*
D03*
X128000Y426900D02*
D03*
Y564100D02*
D03*
Y449800D02*
D03*
Y541200D02*
D03*
D62*
X36600Y559000D02*
D03*
Y432000D02*
D03*
D63*
X70900Y576750D02*
D03*
Y414250D02*
D03*
D64*
X345400Y434600D02*
D03*
X504000Y221600D02*
D03*
D65*
X345400Y460000D02*
D03*
Y485400D02*
D03*
X320000Y434600D02*
D03*
Y460000D02*
D03*
Y485400D02*
D03*
X333000Y571400D02*
D03*
X307600D02*
D03*
X358400Y546000D02*
D03*
X333000D02*
D03*
X307600D02*
D03*
X504000Y247000D02*
D03*
Y272400D02*
D03*
X478600Y221600D02*
D03*
Y247000D02*
D03*
Y272400D02*
D03*
D66*
X568500Y120400D02*
D03*
X570000Y265800D02*
D03*
X572000Y405800D02*
D03*
Y545800D02*
D03*
D67*
X568500Y69600D02*
D03*
X570000Y215000D02*
D03*
X572000Y355000D02*
D03*
Y495000D02*
D03*
D68*
X160000Y46900D02*
D03*
Y123100D02*
D03*
Y358100D02*
D03*
Y281900D02*
D03*
D69*
X49000Y135000D02*
D03*
D70*
Y185800D02*
D03*
Y236600D02*
D03*
Y287400D02*
D03*
D71*
X147400Y-70000D02*
D03*
D72*
X122000D02*
D03*
X96600D02*
D03*
D73*
X358400Y571400D02*
D03*
M02*
